<svg width="1120" height="830" viewBox="0 0 1120 830" fill="none" xmlns="http://www.w3.org/2000/svg">
<g id="undraw_all_the_data_h4ki 1">
<g id="pieChartLight">
<g id="Group 1">
<path id="Vector" d="M216 204.5V226.5C229.054 226.5 241.814 230.371 252.668 237.623C263.521 244.875 271.981 255.183 276.976 267.243C281.971 279.303 283.278 292.573 280.732 305.376C278.185 318.179 271.899 329.939 262.669 339.169L278.225 354.725C290.532 342.418 298.914 326.738 302.309 309.668C305.705 292.598 303.962 274.904 297.301 258.824C290.641 242.744 279.362 229 264.89 219.331C250.419 209.661 233.405 204.5 216 204.5V204.5Z" fill="white"/>
<path id="Vector_2" d="M278.225 354.725L262.669 339.169C251.385 350.455 236.393 357.269 220.47 358.349C204.548 359.428 188.773 354.7 176.069 345.041L162.753 362.561C179.695 375.438 200.728 381.739 221.959 380.298C243.189 378.857 263.179 369.772 278.225 354.725Z" fill="white"/>
</g>
<path id="Vector_3" d="M150 292.5C150 274.996 156.954 258.208 169.331 245.831C181.708 233.454 198.496 226.5 216 226.5V204.5C197.578 204.5 179.621 210.281 164.659 221.028C149.697 231.776 138.486 246.948 132.605 264.406C126.724 281.864 126.47 300.727 131.879 318.337C137.287 335.947 148.086 351.415 162.753 362.561L176.069 345.041C167.961 338.891 161.388 330.947 156.865 321.831C152.343 312.716 149.993 302.676 150 292.5V292.5Z" fill="#161313"/>
</g>
</g>
</svg>
