<svg width="85" height="61" viewBox="0 0 85 61" fill="none" xmlns="http://www.w3.org/2000/svg">
<rect width="85" height="61" fill="#E5E5E5"/>
<rect x="0.5" y="0.5" width="84" height="60" rx="4.5" fill="#F8F5F5" stroke="#161313"/>
<rect x="8" y="6" width="32" height="49" rx="5" fill="#161313"/>
<rect x="45" y="6" width="32" height="49" rx="5" fill="#161313"/>
<path d="M69.4902 24.998C69.4902 26.3223 69.1035 27.5117 68.3301 28.5664C67.5566 29.6094 66.5371 30.377 65.2715 30.8691C66.748 31.373 67.9316 32.1875 68.8223 33.3125C69.7129 34.4375 70.1582 35.7383 70.1582 37.2148C70.1582 39.4062 69.4141 41.1465 67.9258 42.4355C66.4375 43.7129 64.4688 44.3516 62.0195 44.3516C59.5469 44.3516 57.5664 43.7129 56.0781 42.4355C54.6016 41.1582 53.8633 39.418 53.8633 37.2148C53.8633 35.7617 54.291 34.4668 55.1465 33.3301C56.002 32.1934 57.1738 31.373 58.6621 30.8691C57.3965 30.377 56.3887 29.6094 55.6387 28.5664C54.8887 27.5117 54.5137 26.3223 54.5137 24.998C54.5137 22.877 55.1934 21.1895 56.5527 19.9355C57.9238 18.6816 59.7344 18.0547 61.9844 18.0547C64.2344 18.0547 66.0449 18.6875 67.416 19.9531C68.7988 21.2188 69.4902 22.9004 69.4902 24.998ZM68.0488 37.2324C68.0488 35.6387 67.4805 34.332 66.3438 33.3125C65.207 32.2812 63.7539 31.7656 61.9844 31.7656C60.2148 31.7656 58.7676 32.2695 57.6426 33.2773C56.5176 34.2852 55.9551 35.6035 55.9551 37.2324C55.9551 38.8613 56.5 40.1621 57.5898 41.1348C58.6797 42.0957 60.1562 42.5762 62.0195 42.5762C63.8359 42.5762 65.2949 42.0957 66.3965 41.1348C67.498 40.1738 68.0488 38.873 68.0488 37.2324ZM67.3809 24.9805C67.3809 23.5156 66.8711 22.2969 65.8516 21.3242C64.8438 20.3398 63.5547 19.8477 61.9844 19.8477C60.3906 19.8477 59.0957 20.3223 58.0996 21.2715C57.1152 22.209 56.623 23.4453 56.623 24.9805C56.623 26.4805 57.1152 27.6875 58.0996 28.6016C59.0957 29.5156 60.3965 29.9727 62.002 29.9727C63.584 29.9727 64.873 29.5156 65.8691 28.6016C66.877 27.6758 67.3809 26.4688 67.3809 24.9805Z" fill="white"/>
<path d="M31.8418 33.3301C31.8418 36.9395 31.1797 39.6816 29.8555 41.5566C28.5312 43.4199 26.5801 44.3516 24.002 44.3516C21.4707 44.3516 19.5312 43.4375 18.1836 41.6094C16.8359 39.7695 16.1445 37.0977 16.1094 33.5938V29.0059C16.1094 25.4082 16.7773 22.6836 18.1133 20.832C19.4492 18.9805 21.4004 18.0547 23.9668 18.0547C26.498 18.0547 28.4316 18.9512 29.7676 20.7441C31.1035 22.5254 31.7949 25.1562 31.8418 28.6367V33.3301ZM29.7324 28.7422C29.7324 25.8125 29.252 23.5977 28.291 22.0977C27.3418 20.5977 25.9004 19.8477 23.9668 19.8477C22.0684 19.8477 20.6387 20.5801 19.6777 22.0449C18.7168 23.5098 18.2246 25.6719 18.2012 28.5312V33.5586C18.2012 36.4766 18.6934 38.709 19.6777 40.2559C20.6738 41.8027 22.1152 42.5762 24.002 42.5762C25.877 42.5762 27.2949 41.8203 28.2559 40.3086C29.2285 38.7969 29.7207 36.582 29.7324 33.6641V28.7422Z" fill="white"/>
</svg>
